<svg id="Livello_9" data-name="Livello 9" xmlns="http://www.w3.org/2000/svg" viewBox="0 0 192 192"><defs><style>.cls-1{fill:#020202;}.cls-2{fill:none;stroke:#020202;stroke-linecap:round;stroke-linejoin:round;stroke-width:2px;}</style></defs><polygon class="cls-1" points="183.46 120.3 186.37 125.35 183.46 130.4 177.63 130.4 174.71 125.35 177.63 120.3 183.46 120.3"/><path class="cls-2" d="M69.42,48.1h71.24a2.91,2.91,0,0,1,2.9,2.91V120.3"/><path class="cls-2" d="M117.07,144.76H51.15a2.91,2.91,0,0,1-2.91-2.91V72.14"/><polyline class="cls-2" points="180.42 121.57 180.42 96.24 179.16 96.24 151.29 96.24"/><polygon class="cls-1" points="120.08 7.5 125.13 4.58 130.18 7.5 130.18 13.33 125.13 16.24 120.08 13.33 120.08 7.5"/><polyline class="cls-2" points="121.35 10.53 96.02 10.53 96.02 11.8 96.02 39.66"/><polygon class="cls-1" points="79.52 184.95 74.47 187.86 69.42 184.95 69.42 179.12 74.47 176.2 79.52 179.12 79.52 184.95"/><polyline class="cls-2" points="78.25 181.91 103.58 181.91 103.58 180.65 103.58 152.78"/><polygon class="cls-1" points="8.54 72.14 5.63 67.09 8.54 62.04 14.37 62.04 17.29 67.09 14.37 72.14 8.54 72.14"/><polyline class="cls-2" points="11.57 70.87 11.57 96.2 12.84 96.2 40.71 96.2"/><path d="M104.25,111.44h-3.94l-.43-.44-2.19-5.69-.87-.43H85.88l-.87.43L82.82,111l-.44.44H78.45L78,111v-4.37L88.07,81.26l.44-.44h5.68l.44.44,10.06,25.37V111ZM91.57,88.7h-.44L87.19,99.19l.44.44h7.44l.43-.44Z"/><path d="M114.75,111.44H109.5l-.43-.44V81.26l.43-.44h5.25l.44.44V111Z"/></svg>