<svg id="Livello_9" data-name="Livello 9" xmlns="http://www.w3.org/2000/svg" viewBox="0 0 192 192"><defs><style>.cls-1{fill:none;stroke:#020202;stroke-linecap:round;stroke-linejoin:round;stroke-width:2px;}.cls-2{fill:#020202;}</style></defs><path class="cls-1" d="M6.48,29.56a9.94,9.94,0,0,1,9.94-9.93H176a9.93,9.93,0,0,1,9.93,9.93V166.21a9.92,9.92,0,0,1-9.93,9.93"/><path class="cls-1" d="M112,176.14H16.42a9.93,9.93,0,0,1-9.94-9.93V83.56"/><rect class="cls-2" x="44.75" y="11.38" width="102.91" height="24.74"/><rect class="cls-2" x="25.08" y="61.52" width="11.82" height="10.56"/><rect class="cls-2" x="47.67" y="61.73" width="11.82" height="10.56"/><rect class="cls-2" x="68.78" y="61.52" width="11.82" height="10.56"/><rect class="cls-2" x="89.9" y="61.73" width="11.82" height="10.56"/><rect class="cls-2" x="112.24" y="61.73" width="11.82" height="10.56"/><rect class="cls-2" x="133.36" y="61.52" width="11.82" height="10.56"/><rect class="cls-2" x="154.47" y="61.73" width="11.82" height="10.56"/><rect class="cls-2" x="25.08" y="83.95" width="11.82" height="10.56"/><rect class="cls-2" x="47.67" y="84.16" width="11.82" height="10.56"/><rect class="cls-2" x="68.78" y="83.95" width="11.82" height="10.56"/><rect class="cls-2" x="89.9" y="84.16" width="11.82" height="10.56"/><rect class="cls-2" x="112.24" y="84.16" width="11.82" height="10.56"/><rect class="cls-2" x="133.36" y="83.95" width="11.82" height="10.56"/><rect class="cls-2" x="154.47" y="84.16" width="11.82" height="10.56"/><rect class="cls-2" x="25.08" y="106.71" width="11.82" height="10.56"/><rect class="cls-2" x="47.67" y="106.92" width="11.82" height="10.56"/><rect class="cls-2" x="68.78" y="106.71" width="11.82" height="10.56"/><rect class="cls-2" x="89.9" y="106.92" width="11.82" height="10.56"/><rect class="cls-2" x="112.24" y="106.92" width="11.82" height="10.56"/><rect class="cls-2" x="133.36" y="106.71" width="11.82" height="10.56"/><rect class="cls-2" x="154.47" y="106.92" width="11.82" height="10.56"/><rect class="cls-2" x="25.08" y="129.47" width="11.82" height="10.56"/><rect class="cls-2" x="47.67" y="129.68" width="11.82" height="10.56"/><rect class="cls-2" x="68.78" y="129.47" width="11.82" height="10.56"/><rect class="cls-2" x="89.9" y="129.68" width="11.82" height="10.56"/><rect class="cls-2" x="112.24" y="129.68" width="11.82" height="10.56"/><rect class="cls-2" x="133.36" y="129.47" width="11.82" height="10.56"/></svg>