<svg id="Livello_9" data-name="Livello 9" xmlns="http://www.w3.org/2000/svg" viewBox="0 0 192 192"><defs><style>.cls-1{fill:none;stroke:#020202;stroke-linecap:round;stroke-miterlimit:10;stroke-width:2px;}.cls-2{fill:#020202;}</style></defs><path class="cls-1" d="M113.63,140.4H15.33a8.2,8.2,0,0,1-8.2-8.2V36.72a8.2,8.2,0,0,1,8.2-8.2"/><path class="cls-1" d="M137.18,164H38.88a8.2,8.2,0,0,1-8.2-8.2"/><path class="cls-1" d="M58.54,28.52h94.59a8.2,8.2,0,0,1,8.2,8.2V132.2a8.2,8.2,0,0,1-8.2,8.2"/><path class="cls-1" d="M82.09,52.07h94.59a8.2,8.2,0,0,1,8.2,8.2v95.48a8.2,8.2,0,0,1-8.2,8.2"/><rect class="cls-2" x="7.05" y="50.59" width="154.61" height="19.96"/><line class="cls-1" x1="30.33" y1="155.57" x2="30.33" y2="140.4"/></svg>