<svg id="Livello_9" data-name="Livello 9" xmlns="http://www.w3.org/2000/svg" viewBox="0 0 192 192"><defs><style>.cls-1{fill:none;stroke:#020202;stroke-linecap:round;stroke-linejoin:round;stroke-width:2px;}.cls-2{fill:#020202;}</style></defs><polyline class="cls-1" points="122.18 158.86 125.95 158.86 125.95 86.84 31.71 86.84"/><polyline class="cls-1" points="10.68 86.84 6.91 86.84 6.91 158.86 19.82 158.86 34.09 183.59 48.37 158.86 97.38 158.86"/><polyline class="cls-1" points="69.67 53.63 69.67 16.41 160.8 16.41"/><polyline class="cls-1" points="181.14 16.41 184.79 16.41 184.79 86.06 172.31 86.06 158.5 109.97 144.69 86.06"/><polygon class="cls-2" points="23.44 141.45 20.2 141.45 18.58 144.25 20.2 147.05 23.44 147.05 25.05 144.25 23.44 141.45"/><polygon class="cls-2" points="36.25 141.45 33.01 141.45 31.4 144.25 33.01 147.05 36.25 147.05 37.87 144.25 36.25 141.45"/><polygon class="cls-2" points="49.06 141.45 45.83 141.45 44.21 144.25 45.83 147.05 49.06 147.05 50.68 144.25 49.06 141.45"/><polygon class="cls-2" points="61.88 141.45 58.64 141.45 57.02 144.25 58.64 147.05 61.88 147.05 63.49 144.25 61.88 141.45"/><polygon class="cls-2" points="74.69 141.45 71.45 141.45 69.83 144.25 71.45 147.05 74.69 147.05 76.31 144.25 74.69 141.45"/><polygon class="cls-2" points="122.73 67.78 119.5 67.78 117.88 70.58 119.5 73.38 122.73 73.38 124.35 70.58 122.73 67.78"/><polygon class="cls-2" points="135.55 67.78 132.31 67.78 130.69 70.58 132.31 73.38 135.55 73.38 137.16 70.58 135.55 67.78"/><polygon class="cls-2" points="148.36 67.78 145.12 67.78 143.51 70.58 145.12 73.38 148.36 73.38 149.98 70.58 148.36 67.78"/><polygon class="cls-2" points="161.17 67.78 157.94 67.78 156.32 70.58 157.94 73.38 161.17 73.38 162.79 70.58 161.17 67.78"/><polygon class="cls-2" points="173.98 67.78 170.75 67.78 169.13 70.58 170.75 73.38 173.98 73.38 175.6 70.58 173.98 67.78"/></svg>