<svg id="Livello_9" data-name="Livello 9" xmlns="http://www.w3.org/2000/svg" viewBox="0 0 192 192"><defs><style>.cls-1{fill:none;stroke:#020202;stroke-linecap:round;stroke-linejoin:round;stroke-width:2px;}</style></defs><polyline class="cls-1" points="121.92 160.83 125.69 160.83 125.69 88.93 31.61 88.93"/><polyline class="cls-1" points="10.61 88.93 6.85 88.93 6.85 160.83 19.73 160.83 33.98 185.52 48.23 160.83 97.17 160.83"/><line class="cls-1" x1="22.89" y1="112.11" x2="109.45" y2="112.11"/><line class="cls-1" x1="22.89" y1="126.96" x2="109.45" y2="126.96"/><line class="cls-1" x1="22.89" y1="140.63" x2="76.17" y2="140.63"/><polyline class="cls-1" points="69.5 55.77 69.5 18.61 160.48 18.61"/><polyline class="cls-1" points="180.79 18.61 184.43 18.61 184.43 88.15 171.97 88.15 158.19 112.02 144.4 88.15"/><line class="cls-1" x1="168.91" y1="41.03" x2="85.2" y2="41.03"/><line class="cls-1" x1="168.91" y1="55.39" x2="85.2" y2="55.39"/><line class="cls-1" x1="168.91" y1="68.61" x2="117.38" y2="68.61"/></svg>