<svg id="Livello_9" data-name="Livello 9" xmlns="http://www.w3.org/2000/svg" viewBox="0 0 192 192"><defs><style>.cls-1,.cls-3{fill:none;stroke:#020202;stroke-width:2px;}.cls-1{stroke-miterlimit:10;}.cls-2{fill:#020202;}.cls-3{stroke-linecap:round;stroke-linejoin:round;}</style></defs><path class="cls-1" d="M136.08,126.12A55.17,55.17,0,0,1,131,149.34a53.37,53.37,0,0,1-6.25,10.3,50,50,0,0,1-39.59,19.79c-28.12,0-50.91-23.87-50.91-53.31A53.77,53.77,0,0,1,59.61,80a47,47,0,0,1,6.66-3.41,48.72,48.72,0,0,1,18.9-3.8C113.29,72.81,136.08,96.68,136.08,126.12Z"/><path class="cls-2" d="M131,149.34a53.37,53.37,0,0,1-6.25,10.3,49,49,0,0,1-25.57,7.2c-28.12,0-50.91-23.87-50.91-53.31A54.58,54.58,0,0,1,59.61,80a47,47,0,0,1,6.66-3.41,55,55,0,0,0-5.08,23.23c0,29.44,22.79,53.31,50.91,53.31A48.56,48.56,0,0,0,131,149.34Z"/><ellipse class="cls-2" cx="125.75" cy="69.85" rx="40.58" ry="40.72"/><polygon class="cls-2" points="38.19 181.65 65.1 173.61 42.1 153.75 38.19 181.65"/><path class="cls-1" d="M14.21,99.73C11.3,84.35,26.44,68.55,48,64.43s41.47,5,44.39,20.37S17.12,115.1,14.21,99.73Z"/><path class="cls-1" d="M123.25,106.63c15.51-1.64,29.95,14.81,32.26,36.75s-8.4,41.06-23.9,42.71S107.75,108.27,123.25,106.63Z"/><line class="cls-3" x1="131.38" y1="29.13" x2="131.38" y2="6.33"/><line class="cls-3" x1="158.07" y1="51.67" x2="179.84" y2="45.16"/></svg>