<svg id="Livello_9" data-name="Livello 9" xmlns="http://www.w3.org/2000/svg" viewBox="0 0 192 192"><defs><style>.cls-1{fill:none;stroke:#020202;stroke-linecap:round;stroke-linejoin:round;stroke-width:2px;}</style></defs><path class="cls-1" d="M183.52,115.91V78.72h-24.7a67.13,67.13,0,0,0-6.18-14.87l.91.9,17.63-17.63-26.31-26.3L127.41,38.28a67.11,67.11,0,0,0-15.52-6.59V8.27H74.69V31.69a68.22,68.22,0,0,0-14.14,5.8l.28-.27L43.2,19.59,16.9,45.89,34.27,63.26a67.94,67.94,0,0,0-6.51,15.46H3.06v37.19H27.84a67.5,67.5,0,0,0,6.54,15.39L17,148.7,43.29,175l17.63-17.63-.67-.67a67.62,67.62,0,0,0,14.44,6v24.07h37.2V162.68a67.86,67.86,0,0,0,15.32-6.47l17.57,17.56,26.3-26.3-17.63-17.63-1,1a67.5,67.5,0,0,0,6.27-14.91ZM93.29,135.57a38.39,38.39,0,1,1,38.39-38.39A38.39,38.39,0,0,1,93.29,135.57Z"/></svg>