<svg id="Livello_9" data-name="Livello 9" xmlns="http://www.w3.org/2000/svg" viewBox="0 0 192 192"><defs><style>.cls-1{fill:none;stroke:#020202;stroke-linecap:round;stroke-linejoin:round;stroke-width:2px;}.cls-2{fill:#020202;}</style></defs><circle class="cls-1" cx="73.9" cy="31.98" r="24.6"/><path class="cls-1" d="M84.53,141.66H33.86a8.34,8.34,0,0,1-8.34-8.34V80.41a8.34,8.34,0,0,1,8.34-8.33H114a8.34,8.34,0,0,1,8.34,8.33V97"/><polyline class="cls-1" points="87.25 174.36 87.25 129.66 162.01 129.66 162.01 187.64 112.96 187.64"/><path class="cls-1" d="M151.72,129.53a28.28,28.28,0,0,0,.17-3.07,27.26,27.26,0,1,0-54.52,0,28.28,28.28,0,0,0,.17,3.07Z"/><circle class="cls-2" cx="105.91" cy="158.65" r="2.42"/><circle class="cls-2" cx="115.44" cy="158.65" r="2.42"/><circle class="cls-2" cx="124.98" cy="158.65" r="2.42"/><circle class="cls-2" cx="134.52" cy="158.65" r="2.42"/><circle class="cls-2" cx="144.05" cy="158.65" r="2.42"/></svg>