<svg id="Livello_9" data-name="Livello 9" xmlns="http://www.w3.org/2000/svg" viewBox="0 0 192 192"><defs><style>.cls-1{fill:none;stroke:#020202;stroke-linecap:round;stroke-linejoin:round;stroke-width:2px;}</style></defs><path class="cls-1" d="M109.59,182a33.07,33.07,0,0,1-5.49.45H85.74A33.93,33.93,0,0,1,51.9,148.61V88.71A33.94,33.94,0,0,1,85.74,54.87H104.1a33.94,33.94,0,0,1,33.84,33.84v52.65"/><path class="cls-1" d="M95.67,54.13c-4.92-9.76.11-23.21,10.22-27.36,4.35-1.78,9.32-2,13.3-4.52a13.84,13.84,0,0,0,5.53-15.8"/><line class="cls-1" x1="52.27" y1="113.47" x2="137.57" y2="113.47"/><line class="cls-1" x1="94.92" y1="113.47" x2="94.92" y2="55.62"/></svg>