<svg id="Livello_9" data-name="Livello 9" xmlns="http://www.w3.org/2000/svg" viewBox="0 0 192 192"><defs><style>.cls-1{fill:none;stroke:#020202;stroke-linecap:round;stroke-linejoin:round;stroke-width:2px;}.cls-2{fill:#020202;}</style></defs><path class="cls-1" d="M105,181.29H34.24c-4.06,0-7.35-5-7.35-11.26V15.13c0-6.22,3.29-11.26,7.35-11.26h118.1c4.06,0,7.36,5,7.36,11.26v82"/><path class="cls-2" d="M110.15,161.29l3.73,1.89c.43.21.37,1-.11,1.41l-4.18,3.62-4.17,3.63c-.48.41-1,.14-1-.48l.44-5.52.45-5.51c.05-.63.64-1.14,1.06-.93Z"/><rect class="cls-2" x="120.69" y="99.54" width="9.65" height="62.69" rx="1.48" transform="translate(72.51 -42.54) rotate(26.81)"/></svg>