<svg id="Livello_9" data-name="Livello 9" xmlns="http://www.w3.org/2000/svg" viewBox="0 0 192 192"><defs><style>.cls-1{fill:#6a6d6a;}.cls-2{fill:#020202;}.cls-3{fill:none;stroke:#020202;stroke-linecap:round;stroke-linejoin:round;stroke-width:2px;}</style></defs><polygon class="cls-1" points="121.78 81.95 112.2 98.53 93.06 98.53 83.49 81.95 93.06 65.37 112.2 65.37 121.78 81.95"/><polygon class="cls-2" points="92.9 38.28 98.93 48.72 92.9 59.15 80.85 59.15 74.83 48.72 80.85 38.28 92.9 38.28"/><path class="cls-3" d="M78,6.72l62.94-.23c5.24,0,9.5,5.74,9.5,12.83V172.68c0,7.09-4.25,12.83-9.49,12.83H53.05c-5.24,0-9.49-5.74-9.49-12.83V29"/><line class="cls-3" x1="73.32" y1="176.95" x2="120.68" y2="176.95"/><line class="cls-3" x1="77.3" y1="9.91" x2="119.68" y2="9.91"/></svg>