<svg id="Livello_9" data-name="Livello 9" xmlns="http://www.w3.org/2000/svg" viewBox="0 0 192 192"><defs><style>.cls-1{fill:#020202;}.cls-2{fill:none;stroke:#020202;stroke-linecap:round;stroke-linejoin:round;stroke-width:2px;}</style></defs><polygon class="cls-1" points="23.89 119.38 26.43 123.79 23.89 128.19 18.8 128.19 16.26 123.79 18.8 119.38 23.89 119.38"/><polygon class="cls-1" points="36.95 119.38 39.49 123.79 36.95 128.19 31.86 128.19 29.32 123.79 31.86 119.38 36.95 119.38"/><polygon class="cls-1" points="50.01 119.38 52.55 123.79 50.01 128.19 44.92 128.19 42.38 123.79 44.92 119.38 50.01 119.38"/><path class="cls-2" d="M179.21,100.4a3,3,0,0,1,3,3V144a3,3,0,0,1-3,3H8.81a3,3,0,0,1-3-3V103.43a3,3,0,0,1,3-3H109.5"/><rect class="cls-2" x="18.57" y="42.06" width="5.39" height="48.48" transform="translate(14.52 -3) rotate(12.23)"/><rect class="cls-2" x="172.97" y="42.06" width="5.39" height="48.48" transform="translate(18.03 -35.7) rotate(12.23)"/></svg>