<svg id="Livello_9" data-name="Livello 9" xmlns="http://www.w3.org/2000/svg" viewBox="0 0 192 192"><defs><style>.cls-1{fill:#020202;}.cls-2{fill:none;stroke:#020202;stroke-linecap:round;stroke-linejoin:round;stroke-width:2px;}</style></defs><polygon class="cls-1" points="35.89 23.87 38.1 27.71 35.89 31.56 31.47 31.56 29.26 27.71 31.47 23.87 35.89 23.87"/><polygon class="cls-1" points="47.23 23.87 49.44 27.71 47.23 31.56 42.81 31.56 40.6 27.71 42.81 23.87 47.23 23.87"/><polygon class="cls-1" points="58.57 23.87 60.78 27.71 58.57 31.56 54.15 31.56 51.95 27.71 54.15 23.87 58.57 23.87"/><polygon class="cls-1" points="35.89 116.67 38.1 120.51 35.89 124.36 31.47 124.36 29.26 120.51 31.47 116.67 35.89 116.67"/><polygon class="cls-1" points="47.23 116.67 49.44 120.51 47.23 124.36 42.81 124.36 40.6 120.51 42.81 116.67 47.23 116.67"/><polygon class="cls-1" points="58.57 116.67 60.78 120.51 58.57 124.36 54.15 124.36 51.95 120.51 54.15 116.67 58.57 116.67"/><path class="cls-2" d="M170.8,7.29a2.66,2.66,0,0,1,2.64,2.65V45.35A2.66,2.66,0,0,1,170.8,48h-148a2.65,2.65,0,0,1-2.63-2.65V9.94a2.65,2.65,0,0,1,2.63-2.65h87.46"/><path class="cls-2" d="M22.79,185.36a2.64,2.64,0,0,1-2.63-2.64V147.31a2.64,2.64,0,0,1,2.63-2.65h148a2.65,2.65,0,0,1,2.64,2.65v35.41a2.65,2.65,0,0,1-2.64,2.64H83.34"/><rect class="cls-2" x="20.16" y="53.29" width="153.28" height="40.7" rx="2.64"/><rect class="cls-2" x="20.16" y="99.08" width="153.28" height="40.7" rx="2.64"/></svg>