<svg id="Livello_9" data-name="Livello 9" xmlns="http://www.w3.org/2000/svg" viewBox="0 0 192 192"><defs><style>.cls-1{fill:none;stroke:#020202;stroke-linecap:round;stroke-linejoin:round;stroke-width:2px;}.cls-2{fill:#020202;}</style></defs><circle class="cls-1" cx="86.17" cy="37.22" r="29.5"/><path class="cls-1" d="M98.92,168.73H38.16a10,10,0,0,1-10-10V95.29a10,10,0,0,1,10-10h96a10,10,0,0,1,10,10v19.89"/><path class="cls-2" d="M173.12,165.9V154.14h-7.81a20.9,20.9,0,0,0-1.95-4.7l.28.28,5.58-5.57-8.32-8.32-5.52,5.52a21.57,21.57,0,0,0-4.91-2.08v-7.4H138.71v7.4a21.67,21.67,0,0,0-4.47,1.84l.09-.09-5.57-5.57-8.32,8.31,5.49,5.49a21.56,21.56,0,0,0-2.06,4.89h-7.81V165.9h7.84a21.43,21.43,0,0,0,2.07,4.87l-5.5,5.5,8.31,8.31,5.58-5.57-.21-.21a22,22,0,0,0,4.56,1.89v7.61h11.76v-7.61a21.68,21.68,0,0,0,4.85-2.05l5.55,5.56,8.32-8.32-5.57-5.57-.31.3a22,22,0,0,0,2-4.71Zm-28.53,6.22A12.14,12.14,0,1,1,156.73,160,12.14,12.14,0,0,1,144.59,172.12Z"/></svg>