<svg id="Livello_9" data-name="Livello 9" xmlns="http://www.w3.org/2000/svg" viewBox="0 0 192 192"><defs><style>.cls-1,.cls-2{fill:none;stroke:#020202;stroke-linecap:round;stroke-width:2px;}.cls-1{stroke-linejoin:round;}.cls-2{stroke-miterlimit:10;}.cls-3{fill:#020202;}</style></defs><path class="cls-1" d="M28.78,30.48s15.91-21,68.93-21c47.71,0,63.62,21,63.62,21"/><path class="cls-1" d="M43.63,43.05S56,26.8,97.11,26.8c37,0,49.37,16.25,49.37,16.25"/><path class="cls-2" d="M40.36,81.07H151.51a35,35,0,0,1,35,35v38.13a27.94,27.94,0,0,1-27.94,27.94H33.31A27.94,27.94,0,0,1,5.37,154.19V116.06A35,35,0,0,1,40.36,81.07Z"/><rect class="cls-3" x="5.37" y="127.86" width="181.13" height="13.1"/></svg>