<svg id="Livello_9" data-name="Livello 9" xmlns="http://www.w3.org/2000/svg" viewBox="0 0 192 192"><defs><style>.cls-1{fill:none;stroke:#020202;stroke-linecap:round;stroke-linejoin:round;stroke-width:2px;}.cls-2{fill:#020202;}</style></defs><path class="cls-1" d="M77.63,157.65H12.5c-3.74,0-6.77-3.5-6.77-7.82V42.29c0-4.32,3-7.82,6.77-7.82H121.29c3.74,0,6.77,3.5,6.77,7.82V149.83c0,4.32-3,7.82-6.77,7.82"/><path d="M65.31,87H58l-.35.35V108l-.34.35h-2.8l-.35-.35V87.38L53.77,87H46.42l-.35-.35V84.23l.35-.35H65.31l.35.35v2.45Z"/><path d="M79.67,108l-.35.35H76.17l-.35-.35-8-21.34V84.23l.35-.35h2.1l.35.35,7,19.24h.35l7-19.24.35-.35h2.09l.36.35v2.45Z"/><path class="cls-1" d="M166.5,34h17.29a2.59,2.59,0,0,1,2.58,2.58V155.52a2.59,2.59,0,0,1-2.58,2.58H156.3a2.59,2.59,0,0,1-2.58-2.58V59.3"/><circle class="cls-1" cx="170.04" cy="96" r="8.98"/><circle class="cls-2" cx="177.93" cy="43.35" r="3.27"/><circle class="cls-2" cx="161.61" cy="76" r="3.27"/><circle class="cls-2" cx="169.77" cy="76" r="3.27"/><circle class="cls-2" cx="177.93" cy="76" r="3.27"/><circle class="cls-2" cx="161.61" cy="116.82" r="3.27"/><circle class="cls-2" cx="169.77" cy="116.82" r="3.27"/><circle class="cls-2" cx="177.93" cy="116.82" r="3.27"/><circle class="cls-2" cx="161.61" cy="66.2" r="3.27"/><circle class="cls-2" cx="169.77" cy="66.2" r="3.27"/><circle class="cls-2" cx="177.93" cy="66.2" r="3.27"/><rect class="cls-2" x="166.5" y="113.55" width="6.53" height="17.96" rx="3.27"/></svg>