<svg id="Livello_9" data-name="Livello 9" xmlns="http://www.w3.org/2000/svg" viewBox="0 0 192 192"><defs><style>.cls-1{fill:none;stroke:#020202;stroke-linecap:round;stroke-linejoin:round;stroke-width:2px;}.cls-2{fill:#020202;}</style></defs><path class="cls-1" d="M107.15,182.52H38.66c-3.93,0-7.12-4.88-7.12-10.9V21.6c0-6,3.19-10.9,7.12-10.9H153.05c3.93,0,7.12,4.88,7.12,10.9v150c0,6-3.19,10.9-7.12,10.9"/><rect class="cls-2" x="58.97" y="1.64" width="73.77" height="27.16"/><line class="cls-1" x1="73.12" y1="58.22" x2="137.77" y2="58.22"/><rect class="cls-1" x="54.07" y="56.24" width="3.96" height="3.96"/><line class="cls-1" x1="73.12" y1="72.2" x2="137.77" y2="72.2"/><rect class="cls-1" x="54.07" y="70.22" width="3.96" height="3.96"/><line class="cls-1" x1="73.12" y1="86.18" x2="137.77" y2="86.18"/><rect class="cls-1" x="54.07" y="84.2" width="3.96" height="3.96"/><line class="cls-1" x1="73.12" y1="100.16" x2="137.77" y2="100.16"/><rect class="cls-1" x="54.07" y="98.18" width="3.96" height="3.96"/><line class="cls-1" x1="73.12" y1="114.14" x2="137.77" y2="114.14"/><rect class="cls-1" x="54.07" y="112.16" width="3.96" height="3.96"/><line class="cls-1" x1="73.12" y1="128.12" x2="137.77" y2="128.12"/><rect class="cls-1" x="54.07" y="126.14" width="3.96" height="3.96"/><line class="cls-1" x1="73.12" y1="142.1" x2="137.77" y2="142.1"/><rect class="cls-1" x="54.07" y="140.12" width="3.96" height="3.96"/></svg>