<svg id="Livello_9" data-name="Livello 9" xmlns="http://www.w3.org/2000/svg" viewBox="0 0 192 192"><defs><style>.cls-1{fill:none;stroke:#020202;stroke-linecap:round;stroke-linejoin:round;stroke-width:2px;}.cls-2{fill:#020202;}</style></defs><polyline class="cls-1" points="13.89 138.82 8.34 138.82 8.34 32.76 147.13 32.76"/><polyline class="cls-1" points="178.11 32.76 183.66 32.76 183.66 138.82 164.66 138.82 143.63 175.24 122.6 138.82 50.42 138.82"/><polygon class="cls-2" points="166.31 111.52 161.52 111.52 159.13 115.67 161.52 119.82 166.31 119.82 168.71 115.67 166.31 111.52"/><polygon class="cls-2" points="152.16 111.52 147.37 111.52 144.97 115.67 147.37 119.82 152.16 119.82 154.56 115.67 152.16 111.52"/><polygon class="cls-2" points="138.01 111.52 133.22 111.52 130.82 115.67 133.22 119.82 138.01 119.82 140.41 115.67 138.01 111.52"/><polygon class="cls-2" points="123.86 111.52 119.06 111.52 116.67 115.67 119.06 119.82 123.86 119.82 126.25 115.67 123.86 111.52"/><polygon class="cls-2" points="109.7 111.52 104.91 111.52 102.52 115.67 104.91 119.82 109.7 119.82 112.1 115.67 109.7 111.52"/><polygon class="cls-2" points="95.55 111.52 90.76 111.52 88.36 115.67 90.76 119.82 95.55 119.82 97.95 115.67 95.55 111.52"/></svg>