<svg id="Livello_9" data-name="Livello 9" xmlns="http://www.w3.org/2000/svg" viewBox="0 0 192 192"><defs><style>.cls-1{fill:none;stroke:#020202;stroke-linecap:round;stroke-miterlimit:10;stroke-width:2px;}.cls-2{fill:#020202;}</style></defs><path class="cls-1" d="M175.32,175.11a10.65,10.65,0,0,0,9.22-16l-79-136.93a10.65,10.65,0,0,0-18.45,0"/><path class="cls-1" d="M69.71,49.86,8,159.14a10.64,10.64,0,0,0,9.22,16h133.3"/><path class="cls-2" d="M101,137.83l2.08,3.62a2.19,2.19,0,0,1,0,2.21L101,147.27a2.23,2.23,0,0,1-1.91,1.11H94.93A2.21,2.21,0,0,1,93,147.27l-2.09-3.61a2.23,2.23,0,0,1,0-2.21L93,137.83a2.2,2.2,0,0,1,1.91-1.1h4.18A2.23,2.23,0,0,1,101,137.83Z"/><path class="cls-2" d="M97.47,130h-.91a2.25,2.25,0,0,1-2.24-2.24L91.63,63.28A2.25,2.25,0,0,1,93.87,61h6.3a2.24,2.24,0,0,1,2.23,2.24l-2.69,64.48A2.25,2.25,0,0,1,97.47,130Z"/></svg>