<svg id="Livello_9" data-name="Livello 9" xmlns="http://www.w3.org/2000/svg" viewBox="0 0 192 192"><defs><style>.cls-1{fill:#020202;}.cls-2{fill:none;stroke:#020202;stroke-linecap:round;stroke-linejoin:round;stroke-width:2px;}</style></defs><polygon class="cls-1" points="9.65 67 12.35 71.67 9.65 76.35 4.26 76.35 1.56 71.67 4.26 67 9.65 67"/><polygon class="cls-1" points="122.18 7.22 124.88 11.89 122.18 16.57 116.78 16.57 114.09 11.89 116.78 7.22 122.18 7.22"/><polygon class="cls-1" points="69.43 181.88 72.13 186.55 69.43 191.22 64.04 191.22 61.34 186.55 64.04 181.88 69.43 181.88"/><path class="cls-2" d="M146.32,110.65v-22h-14.6c-.88-3.1-3.12-8.26-3.12-8.26L139,70,123.46,54.39,113.14,64.72A40.09,40.09,0,0,0,104,60.83V47H82V60.83a76.3,76.3,0,0,0-8.2,3.27L63.33,53.67,47.77,69.23,58,79.5a40.12,40.12,0,0,0-3.85,9.14H39.58v22H54.24a40.52,40.52,0,0,0,3.87,9.1L47.82,130,63.38,145.6l10.43-10.43A85,85,0,0,0,82,138.31v14.24h22V138.31a39.91,39.91,0,0,0,9.06-3.83l10.39,10.39L139,129.31l-10.43-10.43s2.24-5.13,3.13-8.23ZM93,122.27a22.71,22.71,0,1,1,22.71-22.7A22.7,22.7,0,0,1,93,122.27Z"/><polyline class="cls-2" points="115.86 11.91 92.41 11.91 92.41 13.08 92.41 38.87"/><polyline class="cls-2" points="6.84 76.38 6.84 99.82 8.02 99.82 33.8 99.82"/><polyline class="cls-2" points="70.14 186.56 93.58 186.56 93.58 185.39 93.58 159.6"/><polygon class="cls-1" points="182.33 121.56 185.02 126.24 182.33 130.91 176.93 130.91 174.23 126.24 176.93 121.56 182.33 121.56"/><polyline class="cls-2" points="179.52 122.73 179.52 99.29 178.35 99.29 152.56 99.29"/></svg>