<svg id="grid" xmlns="http://www.w3.org/2000/svg" viewBox="0 0 192 192"><defs><style>.cls-1{fill:none;stroke:#020202;stroke-linecap:round;stroke-linejoin:round;stroke-width:2px;}.cls-2{fill:#020202;}</style></defs><path class="cls-1" d="M6,24c0-6,2.57-10.92,5.75-10.92h92.42c3.18,0,5.75,4.89,5.75,10.92V174.14c0,6-2.57,10.92-5.75,10.92"/><path class="cls-1" d="M67.08,185.06H11.75c-3.18,0-5.75-1.68-5.75-4.86V132.33"/><rect class="cls-2" x="28.16" y="5.06" width="59.61" height="16"/><rect class="cls-2" x="16.42" y="164.94" width="6.11" height="6.11"/><rect class="cls-2" x="29.25" y="164.94" width="6.11" height="6.11"/><rect class="cls-2" x="42.08" y="164.94" width="6.11" height="6.11"/><rect class="cls-2" x="54.9" y="164.94" width="6.11" height="6.11"/><rect class="cls-2" x="67.73" y="164.94" width="6.11" height="6.11"/><rect class="cls-2" x="80.56" y="164.94" width="6.11" height="6.11"/><rect class="cls-2" x="93.39" y="164.94" width="6.11" height="6.11"/><rect class="cls-2" x="16.42" y="152.94" width="6.11" height="6.11"/><rect class="cls-2" x="29.25" y="152.94" width="6.11" height="6.11"/><rect class="cls-2" x="42.08" y="152.94" width="6.11" height="6.11"/><rect class="cls-2" x="54.9" y="152.94" width="6.11" height="6.11"/><rect class="cls-2" x="67.73" y="152.94" width="6.11" height="6.11"/><rect class="cls-2" x="80.56" y="152.94" width="6.11" height="6.11"/><rect class="cls-2" x="93.39" y="152.94" width="6.11" height="6.11"/><rect class="cls-2" x="16.42" y="140.94" width="6.11" height="6.11"/><rect class="cls-2" x="29.25" y="140.94" width="6.11" height="6.11"/><rect class="cls-2" x="42.08" y="140.94" width="6.11" height="6.11"/><rect class="cls-2" x="54.9" y="140.94" width="6.11" height="6.11"/><rect class="cls-2" x="67.73" y="140.94" width="6.11" height="6.11"/><rect class="cls-2" x="80.56" y="140.94" width="6.11" height="6.11"/><rect class="cls-2" x="93.39" y="140.94" width="6.11" height="6.11"/><rect class="cls-2" x="16.42" y="128.94" width="6.11" height="6.11"/><rect class="cls-2" x="29.25" y="128.94" width="6.11" height="6.11"/><rect class="cls-2" x="42.08" y="128.94" width="6.11" height="6.11"/><rect class="cls-2" x="54.9" y="128.94" width="6.11" height="6.11"/><rect class="cls-2" x="67.73" y="128.94" width="6.11" height="6.11"/><rect class="cls-2" x="80.56" y="128.94" width="6.11" height="6.11"/><rect class="cls-2" x="93.39" y="128.94" width="6.11" height="6.11"/><rect class="cls-2" x="16.42" y="116.94" width="6.11" height="6.11"/><rect class="cls-2" x="29.25" y="116.94" width="6.11" height="6.11"/><rect class="cls-2" x="42.08" y="116.94" width="6.11" height="6.11"/><rect class="cls-2" x="54.9" y="116.94" width="6.11" height="6.11"/><rect class="cls-2" x="67.73" y="116.94" width="6.11" height="6.11"/><rect class="cls-2" x="80.56" y="116.94" width="6.11" height="6.11"/><rect class="cls-2" x="93.39" y="116.94" width="6.11" height="6.11"/><rect class="cls-2" x="16.42" y="104.94" width="6.11" height="6.11"/><rect class="cls-2" x="29.25" y="104.94" width="6.11" height="6.11"/><rect class="cls-2" x="42.08" y="104.94" width="6.11" height="6.11"/><rect class="cls-2" x="54.9" y="104.94" width="6.11" height="6.11"/><rect class="cls-2" x="67.73" y="104.94" width="6.11" height="6.11"/><rect class="cls-2" x="80.56" y="104.94" width="6.11" height="6.11"/><rect class="cls-2" x="93.39" y="104.94" width="6.11" height="6.11"/><rect class="cls-2" x="16.42" y="92.94" width="6.11" height="6.11"/><rect class="cls-2" x="29.25" y="92.94" width="6.11" height="6.11"/><rect class="cls-2" x="42.08" y="92.94" width="6.11" height="6.11"/><rect class="cls-2" x="54.9" y="92.94" width="6.11" height="6.11"/><rect class="cls-2" x="67.73" y="92.94" width="6.11" height="6.11"/><rect class="cls-2" x="80.56" y="92.94" width="6.11" height="6.11"/><rect class="cls-2" x="93.39" y="92.94" width="6.11" height="6.11"/><rect class="cls-2" x="16.42" y="80.94" width="6.11" height="6.11"/><rect class="cls-2" x="29.25" y="80.94" width="6.11" height="6.11"/><rect class="cls-2" x="42.08" y="80.94" width="6.11" height="6.11"/><rect class="cls-2" x="54.9" y="80.94" width="6.11" height="6.11"/><rect class="cls-2" x="67.73" y="80.94" width="6.11" height="6.11"/><rect class="cls-2" x="80.56" y="80.94" width="6.11" height="6.11"/><rect class="cls-2" x="93.39" y="80.94" width="6.11" height="6.11"/><rect class="cls-2" x="16.42" y="68.94" width="6.11" height="6.11"/><rect class="cls-2" x="29.25" y="68.94" width="6.11" height="6.11"/><rect class="cls-2" x="42.08" y="68.94" width="6.11" height="6.11"/><rect class="cls-2" x="54.9" y="68.94" width="6.11" height="6.11"/><rect class="cls-2" x="67.73" y="68.94" width="6.11" height="6.11"/><rect class="cls-2" x="80.56" y="68.94" width="6.11" height="6.11"/><rect class="cls-2" x="93.39" y="68.94" width="6.11" height="6.11"/><rect class="cls-2" x="16.42" y="56.94" width="6.11" height="6.11"/><rect class="cls-2" x="29.25" y="56.94" width="6.11" height="6.11"/><rect class="cls-2" x="42.08" y="56.94" width="6.11" height="6.11"/><rect class="cls-2" x="54.9" y="56.94" width="6.11" height="6.11"/><rect class="cls-2" x="67.73" y="56.94" width="6.11" height="6.11"/><rect class="cls-2" x="80.56" y="56.94" width="6.11" height="6.11"/><rect class="cls-2" x="93.39" y="56.94" width="6.11" height="6.11"/><rect class="cls-2" x="16.42" y="44.94" width="6.11" height="6.11"/><rect class="cls-2" x="29.25" y="44.94" width="6.11" height="6.11"/><rect class="cls-2" x="42.08" y="44.94" width="6.11" height="6.11"/><rect class="cls-2" x="54.9" y="44.94" width="6.11" height="6.11"/><rect class="cls-2" x="67.73" y="44.94" width="6.11" height="6.11"/><rect class="cls-2" x="80.56" y="44.94" width="6.11" height="6.11"/><rect class="cls-2" x="93.39" y="44.94" width="6.11" height="6.11"/><rect class="cls-2" x="16.42" y="32.94" width="6.11" height="6.11"/><rect class="cls-2" x="29.25" y="32.94" width="6.11" height="6.11"/><rect class="cls-2" x="42.08" y="32.94" width="6.11" height="6.11"/><rect class="cls-2" x="54.9" y="32.94" width="6.11" height="6.11"/><rect class="cls-2" x="67.73" y="32.94" width="6.11" height="6.11"/><rect class="cls-2" x="80.56" y="32.94" width="6.11" height="6.11"/><rect class="cls-2" x="93.39" y="32.94" width="6.11" height="6.11"/><path class="cls-1" d="M110.45,46.61h70.94c2.57,0,4.65,4,4.65,8.82V176.82c0,4.88-2.28,8.24-4.85,8.24"/><path class="cls-1" d="M149.89,185.06H104.17"/><rect class="cls-2" x="119.94" y="39.28" width="48.18" height="12.72"/><rect class="cls-2" x="119.6" y="169.39" width="4.94" height="4.94"/><rect class="cls-2" x="129.97" y="169.39" width="4.94" height="4.94"/><rect class="cls-2" x="140.34" y="169.39" width="4.94" height="4.94"/><rect class="cls-2" x="150.71" y="169.39" width="4.94" height="4.94"/><rect class="cls-2" x="161.08" y="169.39" width="4.94" height="4.94"/><rect class="cls-2" x="171.45" y="169.39" width="4.94" height="4.94"/><rect class="cls-2" x="119.6" y="159.69" width="4.94" height="4.94"/><rect class="cls-2" x="129.97" y="159.69" width="4.94" height="4.94"/><rect class="cls-2" x="140.34" y="159.69" width="4.94" height="4.94"/><rect class="cls-2" x="150.71" y="159.69" width="4.94" height="4.94"/><rect class="cls-2" x="161.08" y="159.69" width="4.94" height="4.94"/><rect class="cls-2" x="171.45" y="159.69" width="4.94" height="4.94"/><rect class="cls-2" x="119.6" y="149.99" width="4.94" height="4.94"/><rect class="cls-2" x="129.97" y="149.99" width="4.94" height="4.94"/><rect class="cls-2" x="140.34" y="149.99" width="4.94" height="4.94"/><rect class="cls-2" x="150.71" y="149.99" width="4.94" height="4.94"/><rect class="cls-2" x="161.08" y="149.99" width="4.94" height="4.94"/><rect class="cls-2" x="171.45" y="149.99" width="4.94" height="4.94"/><rect class="cls-2" x="119.6" y="140.28" width="4.94" height="4.94"/><rect class="cls-2" x="129.97" y="140.28" width="4.94" height="4.94"/><rect class="cls-2" x="140.34" y="140.28" width="4.94" height="4.94"/><rect class="cls-2" x="150.71" y="140.28" width="4.94" height="4.94"/><rect class="cls-2" x="161.08" y="140.28" width="4.94" height="4.94"/><rect class="cls-2" x="171.45" y="140.28" width="4.94" height="4.94"/><rect class="cls-2" x="119.6" y="130.58" width="4.94" height="4.94"/><rect class="cls-2" x="129.97" y="130.58" width="4.94" height="4.94"/><rect class="cls-2" x="140.34" y="130.58" width="4.94" height="4.94"/><rect class="cls-2" x="150.71" y="130.58" width="4.94" height="4.94"/><rect class="cls-2" x="161.08" y="130.58" width="4.94" height="4.94"/><rect class="cls-2" x="171.45" y="130.58" width="4.94" height="4.94"/><rect class="cls-2" x="119.6" y="120.88" width="4.94" height="4.94"/><rect class="cls-2" x="129.97" y="120.88" width="4.94" height="4.94"/><rect class="cls-2" x="140.34" y="120.88" width="4.94" height="4.94"/><rect class="cls-2" x="150.71" y="120.88" width="4.94" height="4.94"/><rect class="cls-2" x="161.08" y="120.88" width="4.94" height="4.94"/><rect class="cls-2" x="171.45" y="120.88" width="4.94" height="4.94"/><rect class="cls-2" x="119.6" y="111.18" width="4.94" height="4.94"/><rect class="cls-2" x="129.97" y="111.18" width="4.94" height="4.94"/><rect class="cls-2" x="140.34" y="111.18" width="4.94" height="4.94"/><rect class="cls-2" x="150.71" y="111.18" width="4.94" height="4.94"/><rect class="cls-2" x="161.08" y="111.18" width="4.94" height="4.94"/><rect class="cls-2" x="171.45" y="111.18" width="4.94" height="4.94"/><rect class="cls-2" x="119.6" y="101.48" width="4.94" height="4.94"/><rect class="cls-2" x="129.97" y="101.48" width="4.94" height="4.94"/><rect class="cls-2" x="140.34" y="101.48" width="4.94" height="4.94"/><rect class="cls-2" x="150.71" y="101.48" width="4.94" height="4.94"/><rect class="cls-2" x="161.08" y="101.48" width="4.94" height="4.94"/><rect class="cls-2" x="171.45" y="101.48" width="4.94" height="4.94"/><rect class="cls-2" x="119.6" y="91.78" width="4.94" height="4.94"/><rect class="cls-2" x="129.97" y="91.78" width="4.94" height="4.94"/><rect class="cls-2" x="140.34" y="91.78" width="4.94" height="4.94"/><rect class="cls-2" x="150.71" y="91.78" width="4.94" height="4.94"/><rect class="cls-2" x="161.08" y="91.78" width="4.94" height="4.94"/><rect class="cls-2" x="171.45" y="91.78" width="4.94" height="4.94"/><rect class="cls-2" x="119.6" y="82.08" width="4.94" height="4.94"/><rect class="cls-2" x="129.97" y="82.08" width="4.94" height="4.94"/><rect class="cls-2" x="140.34" y="82.08" width="4.94" height="4.94"/><rect class="cls-2" x="150.71" y="82.08" width="4.94" height="4.94"/><rect class="cls-2" x="161.08" y="82.08" width="4.94" height="4.94"/><rect class="cls-2" x="171.45" y="82.08" width="4.94" height="4.94"/><rect class="cls-2" x="119.6" y="72.38" width="4.94" height="4.94"/><rect class="cls-2" x="129.97" y="72.38" width="4.94" height="4.94"/><rect class="cls-2" x="140.34" y="72.38" width="4.94" height="4.94"/><rect class="cls-2" x="150.71" y="72.38" width="4.94" height="4.94"/><rect class="cls-2" x="161.08" y="72.38" width="4.94" height="4.94"/><rect class="cls-2" x="171.45" y="72.38" width="4.94" height="4.94"/><rect class="cls-2" x="119.6" y="62.68" width="4.94" height="4.94"/><rect class="cls-2" x="129.97" y="62.68" width="4.94" height="4.94"/><rect class="cls-2" x="140.34" y="62.68" width="4.94" height="4.94"/><rect class="cls-2" x="150.71" y="62.68" width="4.94" height="4.94"/><rect class="cls-2" x="161.08" y="62.68" width="4.94" height="4.94"/><rect class="cls-2" x="171.45" y="62.68" width="4.94" height="4.94"/><line class="cls-1" x1="96" y1="185.06" x2="104.17" y2="185.06"/></svg>