<svg id="Livello_9" data-name="Livello 9" xmlns="http://www.w3.org/2000/svg" viewBox="0 0 192 192"><defs><style>.cls-1{fill:none;stroke:#020202;stroke-linecap:round;stroke-linejoin:round;stroke-width:2px;}</style></defs><circle class="cls-1" cx="97.89" cy="64.65" r="21.17"/><path class="cls-1" d="M107,159H63.43a7.17,7.17,0,0,1-7.18-7.18V106.32a7.17,7.17,0,0,1,7.18-7.17h68.92a7.17,7.17,0,0,1,7.17,7.17"/><circle class="cls-1" cx="41.66" cy="80.6" r="17.66"/><path class="cls-1" d="M49.29,159.34H12.91a6,6,0,0,1-6-6v-38a6,6,0,0,1,6-6h43.5"/><circle class="cls-1" cx="150.34" cy="80.6" r="17.66"/><path class="cls-1" d="M158,159.34H121.59a6,6,0,0,1-6-6v-38a6,6,0,0,1,6-6h57.5a6,6,0,0,1,6,6v11.91"/></svg>