<svg id="Livello_9" data-name="Livello 9" xmlns="http://www.w3.org/2000/svg" viewBox="0 0 192 192"><defs><style>.cls-1{fill:none;stroke:#020202;stroke-linecap:round;stroke-miterlimit:10;stroke-width:2px;}</style></defs><path class="cls-1" d="M64.59,52.07H38.2c-1.21,0-2.2-1.52-2.2-3.39V9.18c0-1.88,1-3.4,2.2-3.4"/><path class="cls-1" d="M49.8,5.78H75.19c1.22,0,2.2,1.52,2.2,3.4v39.5c0,1.87-1,3.39-2.2,3.39"/><path class="cls-1" d="M146.84,122.7H120.45c-1.21,0-2.2-1.52-2.2-3.39V79.8c0-1.87,1-3.39,2.2-3.39"/><path class="cls-1" d="M132.05,76.41h25.39c1.22,0,2.2,1.52,2.2,3.39v39.51c0,1.87-1,3.39-2.2,3.39"/><path class="cls-1" d="M147.24,186.22H120.85c-1.21,0-2.2-1.52-2.2-3.4v-39.5c0-1.87,1-3.39,2.2-3.39"/><path class="cls-1" d="M132.45,139.93h25.39c1.22,0,2.2,1.52,2.2,3.39v39.5c0,1.88-1,3.4-2.2,3.4"/><line class="cls-1" x1="56.19" y1="52.07" x2="56.19" y2="161.07"/><line class="cls-1" x1="118.71" y1="162.27" x2="56.19" y2="162.27"/><line class="cls-1" x1="117.5" y1="99.76" x2="56.19" y2="99.76"/></svg>