<svg id="Livello_9" data-name="Livello 9" xmlns="http://www.w3.org/2000/svg" viewBox="0 0 192 192"><defs><style>.cls-1{fill:none;stroke:#020202;stroke-linecap:round;stroke-linejoin:round;stroke-width:2px;}</style></defs><polyline class="cls-1" points="149.64 137.01 186.11 137.01 186.11 62.99 43.06 62.99"/><polyline class="cls-1" points="12.19 62.99 5.89 62.99 5.89 137.01 157.15 137.01"/><line class="cls-1" x1="25.4" y1="136.21" x2="25.4" y2="65.66"/><line class="cls-1" x1="43.25" y1="136.21" x2="43.25" y2="63.87"/><line class="cls-1" x1="61.1" y1="116.91" x2="61.1" y2="63.88"/><line class="cls-1" x1="78.95" y1="116.91" x2="78.95" y2="63.88"/><line class="cls-1" x1="96.8" y1="116.91" x2="96.8" y2="63.88"/><line class="cls-1" x1="114.65" y1="116.91" x2="114.65" y2="63.88"/><line class="cls-1" x1="132.5" y1="116.91" x2="132.5" y2="63.88"/><line class="cls-1" x1="150.35" y1="136.18" x2="150.35" y2="64.45"/><line class="cls-1" x1="168.2" y1="136.18" x2="168.2" y2="64.45"/><line class="cls-1" x1="186.05" y1="136.21" x2="186.05" y2="65.66"/><line class="cls-1" x1="7.38" y1="117.44" x2="185.34" y2="117.44"/><line class="cls-1" x1="7.38" y1="99.59" x2="185.34" y2="99.59"/><line class="cls-1" x1="7.38" y1="81.74" x2="185.34" y2="81.74"/></svg>