<svg id="Livello_9" data-name="Livello 9" xmlns="http://www.w3.org/2000/svg" viewBox="0 0 192 192"><defs><style>.cls-1{fill:#6a6d6a;}.cls-2{fill:#020202;}.cls-3{fill:none;stroke:#020202;stroke-linecap:round;stroke-linejoin:round;stroke-width:2px;}</style></defs><polygon class="cls-1" points="144.86 88.43 137.91 100.5 124.02 100.5 117.07 88.43 124.02 76.37 137.91 76.37 144.86 88.43"/><polygon class="cls-2" points="123.9 56.66 128.28 64.25 123.9 71.84 115.16 71.84 110.78 64.25 115.16 56.66 123.9 56.66"/><path class="cls-3" d="M166.23,33.25v91.6H24.14V33.46a.21.21,0,0,1,.2-.21H127.9"/><polyline class="cls-3" points="72.67 40.99 158.62 40.94 158.62 117.27 31.81 117.27 31.81 40.99"/><line class="cls-3" x1="32.02" y1="40.94" x2="42.21" y2="40.94"/><path class="cls-3" d="M4.35,150.3a.21.21,0,0,1-.16-.33L24.13,124.9a.18.18,0,0,1,.16-.08l141.84,0a.19.19,0,0,1,.16.08l20.13,25a.2.2,0,0,1-.15.33"/><path class="cls-3" d="M133.59,155.39H4a.2.2,0,0,1-.2-.21v-4.83H27.59"/><line class="cls-3" x1="186.89" y1="150.35" x2="186.89" y2="155.39"/><line class="cls-3" x1="186.89" y1="150.3" x2="62.52" y2="150.3"/><line class="cls-3" x1="42.21" y1="55.34" x2="89.83" y2="55.34"/><line class="cls-3" x1="42.21" y1="60.43" x2="97.44" y2="60.43"/><line class="cls-3" x1="42.21" y1="65.49" x2="83.43" y2="65.49"/><line class="cls-3" x1="42.21" y1="101.14" x2="89.83" y2="101.14"/><line class="cls-3" x1="42.21" y1="106.23" x2="97.44" y2="106.23"/><line class="cls-3" x1="42.21" y1="111.29" x2="83.43" y2="111.29"/></svg>