<svg id="Livello_9" data-name="Livello 9" xmlns="http://www.w3.org/2000/svg" viewBox="0 0 192 192"><defs><style>.cls-1{fill:none;stroke:#020202;stroke-linecap:round;stroke-linejoin:round;stroke-width:2px;}.cls-2{fill:#020202;}</style></defs><circle class="cls-1" cx="73.19" cy="32.21" r="24.51"/><path class="cls-1" d="M83.78,141.5H33.29A8.31,8.31,0,0,1,25,133.2V80.47a8.31,8.31,0,0,1,8.31-8.31H113.1a8.3,8.3,0,0,1,8.3,8.31V97"/><polyline class="cls-1" points="86.49 174.09 86.49 129.54 161 129.54 161 187.33 112.12 187.33"/><path class="cls-1" d="M123.74,99.19a27.16,27.16,0,0,0-27.16,27.17,28.24,28.24,0,0,0,.17,3.06h54"/><path class="cls-1" d="M144.28,108.58a27.09,27.09,0,0,0-20.54-9.39"/><circle class="cls-2" cx="105.08" cy="158.44" r="2.41"/><circle class="cls-2" cx="114.59" cy="158.44" r="2.41"/><circle class="cls-2" cx="124.09" cy="158.44" r="2.41"/><circle class="cls-2" cx="133.59" cy="158.44" r="2.41"/><circle class="cls-2" cx="143.1" cy="158.44" r="2.41"/></svg>