<svg id="Livello_9" data-name="Livello 9" xmlns="http://www.w3.org/2000/svg" viewBox="0 0 192 192"><defs><style>.cls-1,.cls-2{fill:none;stroke-linecap:round;stroke-linejoin:round;stroke-width:2px;}.cls-1{stroke:#020202;}.cls-2{stroke:#000;}.cls-3{fill:#020202;}</style></defs><line class="cls-1" x1="18.45" y1="157.73" x2="74.65" y2="157.73"/><line class="cls-1" x1="18.45" y1="81.3" x2="18.45" y2="157.73"/><line class="cls-1" x1="6.82" y1="81.3" x2="18.45" y2="81.3"/><line class="cls-1" x1="28.36" y1="68.33" x2="6.82" y2="81.3"/><polyline class="cls-2" points="165.13 69.02 185.53 81.3 173.9 81.3 173.9 130.13 173.9 157.73 146.74 157.73"/><polyline class="cls-2" points="135.67 51.28 96.17 27.5 68.7 44.04"/><polyline class="cls-2" points="165.13 69.02 165.13 44.98 135.67 44.98 135.67 51.28"/><path class="cls-1" d="M64.86,98S73,81.47,100.2,81.47c24.46,0,32.61,16.49,32.61,16.49"/><path class="cls-1" d="M72.48,107.86s6.32-12.8,27.41-12.8c19,0,25.31,12.8,25.31,12.8"/><path class="cls-1" d="M80,117.82s4.52-9.16,19.61-9.16c13.58,0,18.11,9.16,18.11,9.16"/><circle class="cls-3" cx="98.84" cy="127.48" r="5.89"/></svg>