<svg id="Livello_9" data-name="Livello 9" xmlns="http://www.w3.org/2000/svg" viewBox="0 0 192 192"><defs><style>.cls-1{fill:#6a6d6a;}.cls-2{fill:#020202;}.cls-3{fill:none;stroke:#020202;stroke-linecap:round;stroke-linejoin:round;stroke-width:2px;}</style></defs><polygon class="cls-1" points="159.87 102.03 150.99 117.44 133.23 117.44 124.35 102.03 133.23 86.62 150.99 86.62 159.87 102.03"/><polygon class="cls-2" points="133.09 61.44 138.68 71.14 133.09 80.84 121.91 80.84 116.32 71.14 121.91 61.44 133.09 61.44"/><path class="cls-3" d="M186.8,31.55v117H5.2V31.81a.26.26,0,0,1,.26-.26H137.81"/><polyline class="cls-3" points="67.19 41.43 177.02 41.36 177.02 138.87 14.98 138.87 14.98 41.43"/><line class="cls-3" x1="15.66" y1="41.36" x2="28.69" y2="41.36"/><line class="cls-3" x1="28.69" y1="59.76" x2="89.54" y2="59.76"/><line class="cls-3" x1="28.69" y1="66.26" x2="99.27" y2="66.26"/><line class="cls-3" x1="28.69" y1="72.73" x2="81.37" y2="72.73"/><line class="cls-3" x1="28.69" y1="118.26" x2="89.54" y2="118.26"/><line class="cls-3" x1="28.69" y1="124.76" x2="99.27" y2="124.76"/><line class="cls-3" x1="28.69" y1="131.23" x2="81.37" y2="131.23"/><rect class="cls-3" x="80.17" y="149.08" width="31.66" height="7.41"/><rect class="cls-2" x="68.85" y="156.55" width="54.3" height="3.9"/></svg>